<?xml version="1.0" encoding="utf-8"?>
<!-- Generated by IcoMoon.io -->
<!DOCTYPE svg PUBLIC "-//W3C//DTD SVG 1.1//EN" "http://www.w3.org/Graphics/SVG/1.1/DTD/svg11.dtd">
<svg version="1.1" xmlns="http://www.w3.org/2000/svg" xmlns:xlink="http://www.w3.org/1999/xlink" width="1024" height="1024" viewBox="0 0 1024 1024">
<g id="icomoon-ignore">
</g>
<path fill="rgb(143, 200, 78)" d="M0 1024h1024v-1024h-1024v1024z"></path>
<path fill="rgba(1, 1, 1, 0.1)" d="M1024 684c-60-76-144.67-191.572-144.67-191.572l-699.33-0.428-40 112 358 420h526v-340z"></path>
<path fill="rgb(255, 255, 255)" d="M299.086 489.7c0-3.126-1.644-5.996-4.338-7.542l-71.866-41.366c-1.216-0.712-2.58-1.086-3.958-1.138h-0.744c-1.374 0.052-2.734 0.426-3.968 1.138l-71.868 41.366c-2.68 1.544-4.344 4.414-4.344 7.542l0.158 111.364c0 1.55 0.804 2.996 2.166 3.75 1.334 0.8 2.984 0.8 4.312 0l42.71-24.458c2.702-1.604 4.344-4.434 4.344-7.534v-52.022c0-3.102 1.642-5.978 4.334-7.516l18.188-10.472c1.356-0.792 2.838-1.174 4.352-1.174 1.48 0 3 0.38 4.318 1.174l18.178 10.472c2.692 1.538 4.34 4.414 4.34 7.516v52.022c0 3.1 1.666 5.952 4.35 7.534l42.698 24.458c1.342 0.8 3.014 0.8 4.342 0 1.322-0.754 2.156-2.2 2.156-3.75l0.14-111.364z"></path>
<path fill="rgb(255, 255, 255)" d="M635.656 547.688c0 0.776-0.418 1.49-1.090 1.88l-24.684 14.22c-0.672 0.388-1.492 0.388-2.164 0l-24.688-14.22c-0.674-0.39-1.084-1.106-1.084-1.88v-28.506c0-0.776 0.41-1.492 1.080-1.876l24.686-14.258c0.678-0.388 1.498-0.388 2.176 0l24.678 14.258c0.672 0.384 1.090 1.102 1.090 1.876v28.506zM642.326 336.606c-1.348-0.752-2.986-0.734-4.318 0.046-1.322 0.78-2.136 2.202-2.136 3.742v110.292c0 1.082-0.586 2.088-1.518 2.63-0.938 0.546-2.098 0.546-3.044 0l-17.994-10.368c-2.69-1.554-5.994-1.548-8.674 0l-71.896 41.492c-2.688 1.552-4.344 4.412-4.344 7.516v83c0 3.102 1.656 5.964 4.342 7.522l71.884 41.522c2.692 1.554 6.002 1.554 8.686 0l71.906-41.522c2.686-1.556 4.34-4.42 4.34-7.522v-206.9c0-3.142-1.7-6.044-4.452-7.578l-42.782-23.872z"></path>
<path fill="rgb(255, 255, 255)" d="M879.282 518.442c2.682-1.556 4.322-4.414 4.322-7.51v-20.114c0-3.096-1.64-5.956-4.322-7.508l-71.43-41.476c-2.684-1.564-6.008-1.564-8.7-0.012l-71.872 41.492c-2.688 1.552-4.338 4.414-4.338 7.52v82.972c0 3.122 1.676 6 4.382 7.544l71.424 40.696c2.63 1.508 5.866 1.518 8.508 0.048l43.202-24.010c1.376-0.764 2.228-2.202 2.234-3.764 0.010-1.566-0.82-3.012-2.178-3.796l-72.322-41.51c-1.356-0.772-2.186-2.212-2.186-3.766v-26.006c0-1.544 0.826-2.984 2.174-3.758l22.51-12.98c1.338-0.772 2.992-0.772 4.332 0l22.522 12.98c1.344 0.774 2.174 2.212 2.174 3.758v20.458c0 1.556 0.83 2.988 2.176 3.77 1.346 0.77 3.002 0.764 4.346-0.014l43.042-25.014z"></path>
<path fill="rgb(255, 255, 255)" d="M409.56 441.384c2.684-1.546 5.996-1.546 8.68 0l71.886 41.484c2.69 1.552 4.344 4.416 4.344 7.522v83.032c0 3.1-1.654 5.962-4.338 7.522l-71.888 41.516c-2.688 1.552-5.998 1.552-8.684 0l-71.87-41.516c-2.684-1.558-4.338-4.422-4.338-7.522v-83.036c0-3.102 1.654-5.964 4.342-7.518l71.866-41.484z"></path>
</svg>
